<svg xmlns="http://www.w3.org/2000/svg" viewBox="0 0 240 260" width="240" height="260">
  <!-- House roof -->
  <polygon points="120,15 45,75 195,75" fill="#d94b1a"/>
  <polygon points="120,25 55,75 185,75" fill="#e8601f"/>

  <!-- Chimney -->
  <rect x="150" y="30" width="14" height="30" fill="#d94b1a" rx="1"/>

  <!-- House body -->
  <rect x="60" y="75" width="120" height="55" fill="#e8601f"/>

  <!-- Windows row -->
  <rect x="78" y="83" width="20" height="18" fill="#f5a623" rx="2"/>
  <line x1="88" y1="83" x2="88" y2="101" stroke="#e8601f" stroke-width="2"/>
  <line x1="78" y1="92" x2="98" y2="92" stroke="#e8601f" stroke-width="2"/>

  <rect x="142" y="83" width="20" height="18" fill="#f5a623" rx="2"/>
  <line x1="152" y1="83" x2="152" y2="101" stroke="#e8601f" stroke-width="2"/>
  <line x1="142" y1="92" x2="162" y2="92" stroke="#e8601f" stroke-width="2"/>

  <!-- Door -->
  <rect x="105" y="100" width="30" height="30" fill="#8B4513" rx="3"/>
  <circle cx="130" cy="117" r="2.5" fill="#d4a04a"/>

  <!-- Person figure -->
  <circle cx="120" cy="148" r="11" fill="#4a7c59"/>
  <path d="M120,159 C108,163 102,178 106,190 L113,186 L120,196 L127,186 L134,190 C138,178 132,163 120,159Z" fill="#4a7c59"/>

  <!-- Left leaf - larger, curved -->
  <path d="M90,150 Q60,125 55,150 Q55,170 80,170 Q65,155 75,145 Q80,148 90,150Z" fill="#27ae60"/>
  <path d="M80,170 Q68,155 72,142" fill="none" stroke="#1e8449" stroke-width="1.5"/>

  <!-- Right leaf - larger, curved -->
  <path d="M150,150 Q180,125 185,150 Q185,170 160,170 Q175,155 165,145 Q160,148 150,150Z" fill="#27ae60"/>
  <path d="M160,170 Q172,155 168,142" fill="none" stroke="#1e8449" stroke-width="1.5"/>

  <!-- Small leaves sprouting -->
  <path d="M95,165 Q82,155 78,165 Q82,175 95,170Z" fill="#2ecc71"/>
  <path d="M145,165 Q158,155 162,165 Q158,175 145,170Z" fill="#2ecc71"/>

  <!-- Text: Tranquility -->
  <text x="120" y="220" text-anchor="middle" font-family="'Montserrat', 'Source Sans 3', sans-serif" font-size="15" fill="#4a7c59" font-style="italic">Tranquility</text>

  <!-- Text: Tranquility Rehab Centre -->
  <text x="120" y="242" text-anchor="middle" font-family="'Montserrat', 'Source Sans 3', sans-serif" font-size="12" font-weight="700" fill="#333" letter-spacing="1.5">TRANQUILITY</text>
  <text x="120" y="256" text-anchor="middle" font-family="'Montserrat', 'Source Sans 3', sans-serif" font-size="10" font-weight="700" fill="#333" letter-spacing="1.5">REHAB CENTRE</text>
</svg>
